<svg width="40" height="40" viewBox="0 0 40 40" fill="none" xmlns="http://www.w3.org/2000/svg">
<g clip-path="url(#clip0_402_141)">
<g clip-path="url(#clip1_402_141)">
<g clip-path="url(#clip2_402_141)">
<path d="M31.6705 0H8.32955C3.72926 0 0 3.72926 0 8.32955V31.6705C0 36.2707 3.72926 40 8.32955 40H31.6705C36.2707 40 40 36.2707 40 31.6705V8.32955C40 3.72926 36.2707 0 31.6705 0Z" fill="#29262F"/>
<path d="M10.75 28.5909C10.75 29.8295 9.73864 30.8409 8.5 30.8409C7.26136 30.8409 6.25 29.8295 6.25 28.5909V11.4205C6.25 10.1818 7.26136 9.17046 8.5 9.17046C9.73864 9.17046 10.75 10.1818 10.75 11.4205V28.5909ZM23.75 28.6023C23.75 29.8409 22.75 30.8409 21.5114 30.8409C20.2727 30.8409 19.2727 29.8409 19.2727 28.6023V11.4091C19.2727 10.1705 20.2727 9.17046 21.5114 9.17046C22.75 9.17046 23.75 10.1705 23.75 11.4091V28.6023ZM8.81818 19.7273C8.81818 18.7045 9.64773 17.875 10.6705 17.875H19.1136C20.1364 17.875 20.9659 18.7045 20.9659 19.7273C20.9659 20.75 20.1364 21.5795 19.1136 21.5795H10.6705C9.64773 21.5795 8.81818 20.75 8.81818 19.7273Z" fill="#F0EAFE"/>
<path d="M30 30.8409C32.0711 30.8409 33.75 29.162 33.75 27.0909C33.75 25.0198 32.0711 23.3409 30 23.3409C27.9289 23.3409 26.25 25.0198 26.25 27.0909C26.25 29.162 27.9289 30.8409 30 30.8409Z" fill="#463857"/>
</g>
</g>
</g>
<defs>
<clipPath id="clip0_402_141">
<rect width="40" height="40" fill="white"/>
</clipPath>
<clipPath id="clip1_402_141">
<rect width="40" height="40" fill="white"/>
</clipPath>
<clipPath id="clip2_402_141">
<rect width="40" height="40" fill="white"/>
</clipPath>
</defs>
</svg>
