<svg width="144" height="72" viewBox="0 0 144 72" fill="none" xmlns="http://www.w3.org/2000/svg">
<g clip-path="url(#clip0_564_20)">
<path d="M139.038 71.9995L142.526 69.1601L105.449 21.2954L101.861 24.1347L139.038 71.9995ZM139.038 71.9995L142.526 69.1601L105.449 21.2954L101.861 24.1347L139.038 71.9995Z" fill="white"/>
<path fill-rule="evenodd" clip-rule="evenodd" d="M20.5317 41.7803C31.6948 41.7803 40.964 32.2479 40.964 20.7887C40.964 9.32957 31.6948 0 20.5317 0C9.16954 0 0 9.32957 0 20.7887C0 32.3492 9.16954 41.7803 20.5317 41.7803ZM4.68444 20.6873C4.68444 29.7127 11.8606 37.217 20.5317 37.217C29.203 37.217 36.2795 29.7127 36.2795 20.6873C36.2795 11.8648 29.1034 4.56338 20.5317 4.56338C11.6613 4.56338 4.68444 11.662 4.68444 20.6873Z" fill="white"/>
<path fill-rule="evenodd" clip-rule="evenodd" d="M71.4342 41.7803C82.5971 41.7803 91.8663 32.2479 91.8663 20.7887C91.8663 9.32957 82.5971 0 71.4342 0C60.0719 0 50.9023 9.32957 50.9023 20.7887C50.9023 32.3492 60.0719 41.7803 71.4342 41.7803ZM55.5868 20.6873C55.5868 29.7127 62.7629 37.217 71.4342 37.217C80.1053 37.217 87.1819 29.7127 87.1819 20.6873C87.1819 11.8648 80.0057 4.56338 71.4342 4.56338C62.5637 4.56338 55.5868 11.662 55.5868 20.6873Z" fill="white"/>
<path d="M18.8368 71.9998L38.0729 45.2279L34.1859 42.1855L14.8501 68.7547L18.8368 71.9998Z" fill="white"/>
<path d="M18.8368 71.9998L38.0729 45.2279L34.1859 42.1855L14.8501 68.7547L18.8368 71.9998Z" fill="white"/>
<path d="M69.7391 71.9998L88.9752 45.2279L85.0882 42.1855L65.7524 68.7547L69.7391 71.9998Z" fill="white"/>
<path d="M69.7391 71.9998L88.9752 45.2279L85.0882 42.1855L65.7524 68.7547L69.7391 71.9998Z" fill="white"/>
<path d="M141.132 24.1347L127.178 42.2868L123.79 39.1433L137.544 21.2954L141.132 24.1347Z" fill="white"/>
<path d="M103.955 72.0006L119.403 52.2258L115.915 49.1836L100.466 69.1611L103.955 72.0006Z" fill="white"/>
</g>
<defs>
<clipPath id="clip0_564_20">
<rect width="144" height="72" fill="white"/>
</clipPath>
</defs>
</svg>
