<svg width="165" height="32" viewBox="0 0 165 32" fill="none" xmlns="http://www.w3.org/2000/svg">
<g clip-path="url(#clip0_562_22)">
<path d="M0 21.6207V8.08203H4.83287V21.137C4.83287 24.8102 6.66948 26.5525 9.52102 26.5525C12.8076 26.5525 15.1232 24.4264 15.1232 18.772V8.08203H19.8599V30.4141H15.126V27.0315H15.0326C14.4214 28.3168 13.4438 29.3926 12.2226 30.1237C11.0015 30.8547 9.59144 31.2082 8.16987 31.1398C3.76931 31.1444 0 28.4819 0 21.6207Z" fill="white"/>
<path d="M45.2412 16.6899V30.4153H40.5035V17.5116C40.5035 13.6936 38.5707 12.0961 35.3803 12.0961C31.9004 12.0961 29.4354 14.1745 29.4354 19.7319V30.4181H24.6997V8.08778H29.4364V11.4706H29.5297C30.2377 10.1696 31.2977 9.09431 32.5883 8.36773C33.8789 7.64116 35.3481 7.29269 36.8275 7.36221C41.6128 7.36221 45.2374 9.9243 45.2374 16.6899" fill="white"/>
<path d="M50.0698 30.4154V8.08691H54.8074V11.8089H52.0203L54.8084 15.2426V30.4154H50.0698Z" fill="white"/>
<path d="M54.8671 8.0874H50.1304V30.4159H54.8671V8.0874Z" fill="white"/>
<path d="M59.8813 30.4156V8.08515H64.618V11.5651H64.7114C65.2586 10.2555 66.1986 9.14805 67.4019 8.3954C68.6052 7.64275 70.0124 7.28204 71.4293 7.36303C72.8987 7.27721 74.3558 7.67498 75.5777 8.49552C76.7996 9.31607 77.7192 10.5142 78.1959 11.9068H78.2892C78.8578 10.5274 79.833 9.35376 81.0849 8.54209C82.3368 7.73042 83.8062 7.31916 85.2976 7.36303C89.4992 7.36303 92.9334 9.97737 92.9334 16.5945V30.4137H88.1968V16.8349C88.1968 13.7416 86.6506 12.0982 83.7981 12.0982C80.8983 12.0982 78.7719 13.9834 78.7719 18.8208V30.4156H74.0353V16.8349C74.0353 13.7416 72.4891 12.0982 69.589 12.0982C66.7375 12.0982 64.6105 13.9834 64.6105 18.8648V30.4156H59.8813Z" fill="white"/>
<path d="M106.134 19.2512C106.134 12.1466 111.208 7.3624 118.41 7.3624C121.127 7.32811 123.79 8.12051 126.046 9.6345L123.823 13.6486C122.163 12.579 120.238 11.9932 118.264 11.9572C113.963 11.9572 111.16 15.0505 111.16 19.255C111.16 23.4594 113.961 26.5528 118.264 26.5528C120.238 26.5166 122.163 25.9307 123.823 24.8609L126.046 28.8758C123.79 30.3901 121.126 31.1825 118.409 31.1479C111.207 31.1479 106.133 26.3627 106.133 19.2591" fill="white"/>
<path d="M141.512 7.41003V12.9684H140.786C136.146 12.9684 133.682 15.1915 133.682 20.508V30.4146H128.945V8.0861H133.682V12.9674H133.775C134.201 11.343 135.163 9.9101 136.505 8.90116C137.847 7.89222 139.491 7.36644 141.17 7.40915L141.512 7.41003Z" fill="white"/>
<path d="M102.499 8.08789H97.7622V30.4164H102.499V8.08789Z" fill="white"/>
<path d="M152.721 7.39343H152.72L152.719 7.39714L152.693 7.399V12.0564C152.756 12.0527 152.818 12.0451 152.881 12.0433C154.308 11.9935 155.717 12.3679 156.931 13.1192C158.145 13.8704 159.109 14.9647 159.701 16.2637C160.293 17.5627 160.486 19.0081 160.257 20.4171C160.027 21.826 159.385 23.1353 158.411 24.1793C157.438 25.2233 156.176 25.9551 154.787 26.2822C153.397 26.6094 151.942 26.5171 150.605 26.0171C149.268 25.5171 148.109 24.6319 147.275 23.4733C146.441 22.3147 145.969 20.9348 145.92 19.5082C145.845 17.68 147.215 18.4185 150.641 19.6427V14.9331C142.949 11.9864 141.075 13.8855 141.276 19.6652C141.358 22.0106 142.133 24.279 143.504 26.1837C144.875 28.0884 146.78 29.5437 148.978 30.3658C151.176 31.1878 153.569 31.3395 155.853 30.8018C158.137 30.2641 160.211 29.061 161.812 27.3448C163.412 25.6286 164.468 23.4763 164.845 21.1601C165.223 18.8438 164.905 16.4677 163.932 14.3321C162.959 12.1966 161.374 10.3975 159.379 9.16241C157.384 7.92734 155.067 7.31172 152.721 7.39343Z" fill="white"/>
<path d="M55.3202 2.84889C55.3204 2.28563 55.1536 1.73497 54.8408 1.26652C54.528 0.798081 54.0834 0.432902 53.5631 0.217168C53.0428 0.00143451 52.4702 -0.0551649 51.9177 0.0545276C51.3653 0.16422 50.8577 0.435278 50.4593 0.833423C50.0609 1.23157 49.7895 1.73892 49.6794 2.29131C49.5693 2.84371 49.6256 3.41634 49.8409 3.93679C50.0563 4.45724 50.4212 4.90213 50.8894 5.21521C51.3576 5.52828 51.9082 5.69548 52.4715 5.69566C53.2197 5.67738 53.9346 5.38268 54.4783 4.86841C55.0003 4.32273 55.2999 3.60187 55.3183 2.84694" fill="white"/>
<path d="M102.979 2.8492C102.979 2.28597 102.813 1.73533 102.5 1.26692C102.187 0.798503 101.742 0.433349 101.222 0.217633C100.702 0.00191678 100.129 -0.0546735 99.5768 0.0550185C99.0244 0.164711 98.5169 0.435758 98.1185 0.833885C97.7201 1.23201 97.4487 1.73934 97.3386 2.29171C97.2285 2.84408 97.2847 3.41668 97.5001 3.93711C97.7155 4.45754 98.0803 4.90242 98.5485 5.2155C99.0167 5.52857 99.5672 5.69577 100.13 5.69597C100.879 5.67769 101.594 5.38299 102.137 4.86872C102.659 4.32304 102.959 3.60218 102.977 2.84726" fill="white"/>
</g>
<defs>
<clipPath id="clip0_562_22">
<rect width="165" height="31.149" fill="white"/>
</clipPath>
</defs>
</svg>
